HIERARCHY
ROOT Hips
{
	OFFSET 0.00000 0.00000 0.00000
	CHANNELS 6 Xposition Yposition Zposition Zrotation Yrotation Xrotation 
	JOINT RightUpLegDummy
	{
		OFFSET 0 0 0
		CHANNELS 3 Zrotation Yrotation Xrotation
		JOINT RightUpLeg
		{
			OFFSET -3.52197 -3.41223 0.04002
			CHANNELS 3 Zrotation Yrotation Xrotation
			JOINT RightLeg
			{
				OFFSET 0.00006 -17.42390 1.60435
				CHANNELS 3 Zrotation Yrotation Xrotation
				JOINT RightFoot
				{
					OFFSET 0.06153 -16.50078 -1.63901
					CHANNELS 3 Zrotation Yrotation Xrotation
					JOINT RightToes
					{
						OFFSET 0.00298 -1.73825 3.34613
						CHANNELS 3 Zrotation Yrotation Xrotation
						End Site
						{
							OFFSET 0.00480 -0.05416 3.85043
						}
					}
				}
			}
		}
	}
	JOINT SpineDummy
	{
		OFFSET 0 0 0
		CHANNELS 3 Zrotation Yrotation Xrotation
		JOINT Spine
		{
			OFFSET 0.00000 4.68130 0.00000
			CHANNELS 3 Zrotation Yrotation Xrotation
			JOINT Spine1
			{
				OFFSET -0.00000 10.10138 0.05002
				CHANNELS 3 Zrotation Yrotation Xrotation
				JOINT HEadDummy
				{
					OFFSET 0 0 0
					CHANNELS 3 Zrotation Yrotation Xrotation
					JOINT Head
					{
						OFFSET -0.00000 3.43865 0.00438
						CHANNELS 3 Zrotation Yrotation Xrotation
						End Site
						{
							OFFSET -0.11417 5.02924 0.98962
						}
					}
				}
				JOINT LeftShoulder1Dummy
				{
					OFFSET 0 0 0
					CHANNELS 3 Zrotation Yrotation Xrotation
					JOINT LeftShoulder1
					{
						OFFSET 3.53937 -0.14262 -0.08662
						CHANNELS 3 Zrotation Yrotation Xrotation
						JOINT LeftArm
						{
							OFFSET 4.04833 -0.00133 0.12681
							CHANNELS 3 Zrotation Yrotation Xrotation
							JOINT LeftForeArm
							{
								OFFSET 10.33880 -0.01036 -0.55515
								CHANNELS 3 Zrotation Yrotation Xrotation
								JOINT LeftHand
								{
									OFFSET 8.69677 0.07543 0.40060
									CHANNELS 3 Zrotation Yrotation Xrotation
									End Site
									{
										OFFSET 5.28377 -0.21905 0.59205
									}
								}
							}
						}
					}
				}
				JOINT RightShoulderDummy
				{
					OFFSET 0 0 0
					CHANNELS 3 Zrotation Yrotation Xrotation
					JOINT RightShoulder
					{
						OFFSET -3.53937 -0.14262 -0.08660
						CHANNELS 3 Zrotation Yrotation Xrotation
						JOINT RightArm
						{
							OFFSET -4.04833 -0.00133 0.12683
							CHANNELS 3 Zrotation Yrotation Xrotation
							JOINT RightForeArm
							{
								OFFSET -10.37987 -0.01039 -0.55511
								CHANNELS 3 Zrotation Yrotation Xrotation
								JOINT RightHand
								{
									OFFSET -8.67398 0.07538 0.40058
									CHANNELS 3 Zrotation Yrotation Xrotation
									End Site
									{
										OFFSET -5.24810 -0.21916 0.59204
									}
								}
							}
						}
					}
				}
			}
		}
	}
	JOINT LeftUpLegDummy
	{
		OFFSET 0 0 0
		CHANNELS 3 Zrotation Yrotation Xrotation
		JOINT LeftUpLeg
		{
			OFFSET 3.52197 -3.41223 0.04002
			CHANNELS 3 Zrotation Yrotation Xrotation
			JOINT LeftLeg
			{
				OFFSET -0.00012 -17.42399 1.60337
				CHANNELS 3 Zrotation Yrotation Xrotation
				JOINT LeftFoot
				{
					OFFSET -0.09972 -16.50070 -1.63802
					CHANNELS 3 Zrotation Yrotation Xrotation
					JOINT LeftToes
					{
						OFFSET -0.01575 -1.73823 3.34611
						CHANNELS 3 Zrotation Yrotation Xrotation
						End Site
						{
							OFFSET 0.03150 -0.01868 3.85031
						}
					}
				}
			}
		}
	}
}
MOTION
Frames: 11
Frame Time: 0.033333
-17.0230 38.1080 44.2446 -11.2883 55.2267 -18.7582 0.0000 0.0000 0.0000 4.7529 1.0644 -12.1453 3.1162 8.3392 12.9022 12.5732 -1.6932 4.0645 0.0000 -0.0000 0.0000 0.0000 0.0000 0.0000 2.2438 -1.4553 13.3404 4.8368 -2.1431 -2.9047 -0.0000 0.0000 -0.0000 -0.1274 4.5540 7.8947 -0.0000 0.0000 -0.0000 -34.7635 -2.3295 2.3804 -42.9868 -13.0405 -15.1844 -12.0885 3.8130 39.4001 14.8738 -5.9974 -1.4153 -0.0000 0.0000 -0.0000 34.9342 5.1747 3.5544 36.0552 -1.4244 -20.8971 9.6824 -2.8891 21.8601 -10.7845 1.4097 -0.6195 0.0000 0.0000 0.0000 2.6732 7.5702 15.3356 -10.6599 -13.0563 35.0345 11.6138 -0.2363 -8.1425 0.0000 0.0000 -0.0000
-16.0674 37.9453 45.0024 -13.9208 56.7651 -21.6296 0.0000 0.0000 0.0000 5.8085 0.4992 -11.9481 3.5750 7.2125 17.6890 9.6861 -1.1139 1.6900 0.0000 -0.0000 0.0000 0.0000 0.0000 0.0000 4.5685 -1.3656 13.9769 3.8816 -1.7327 -3.3661 -0.0000 0.0000 -0.0000 -0.6144 5.0640 8.2579 -0.0000 0.0000 -0.0000 -34.7829 -2.3561 2.3924 -42.6999 -12.4632 -18.9326 -10.4381 5.4793 40.9836 15.7566 -4.8308 -1.3516 -0.0000 0.0000 -0.0000 34.7749 5.1531 3.5315 35.7716 -1.2404 -20.6319 9.8143 -2.7944 21.4976 -10.8923 1.4786 -0.6318 0.0000 0.0000 0.0000 5.6177 8.4214 11.6880 -13.2064 -11.4803 44.9950 2.7067 -0.2432 0.4003 0.0000 0.0000 -0.0000
-15.1927 37.8213 45.7085 -16.1727 58.8432 -24.3382 0.0000 0.0000 0.0000 6.5534 -0.2727 -11.1626 3.6798 5.9417 21.6477 5.9078 -0.4888 -1.9777 0.0000 -0.0000 0.0000 0.0000 0.0000 0.0000 5.6750 -1.2255 14.9013 3.6517 -1.4458 -3.7509 -0.0000 0.0000 -0.0000 -0.8288 5.4779 8.0757 -0.0000 0.0000 -0.0000 -34.5606 -2.4382 2.4124 -42.5267 -11.9698 -21.6174 -9.1162 5.3181 41.5422 16.5994 -3.0478 -1.1857 -0.0000 0.0000 -0.0000 34.5501 5.1268 3.5011 35.4493 -0.5800 -20.1352 10.0026 -2.6038 21.3853 -10.7199 1.4509 -0.6192 0.0000 0.0000 0.0000 7.0715 8.0344 6.8467 -12.3432 -7.7177 53.9758 -2.5562 0.3733 10.6362 0.0000 0.0000 -0.0000
-14.2940 37.8120 46.4063 -17.7695 61.8520 -26.5670 0.0000 0.0000 0.0000 6.3968 -0.7996 -9.5445 2.8495 3.6494 23.9785 4.0691 -0.2453 -4.8122 0.0000 -0.0000 0.0000 0.0000 0.0000 0.0000 5.5411 -1.1599 15.5969 3.7698 -1.3732 -3.8881 -0.0000 0.0000 -0.0000 -0.7203 5.3832 7.6481 -0.0000 0.0000 -0.0000 -34.3559 -2.5047 2.4269 -41.9826 -11.6537 -23.0492 -8.3742 5.3032 42.4441 16.4682 -1.7645 -1.0029 -0.0000 0.0000 -0.0000 34.4430 5.1097 3.4848 35.0872 0.2918 -19.6096 10.1884 -2.2720 21.4388 -10.5223 1.4443 -0.6069 0.0000 0.0000 0.0000 6.8267 6.8409 1.7555 -7.1673 -3.4497 60.7333 -0.2072 -0.0462 15.9905 0.0000 0.0000 -0.0000
-13.2785 37.9238 47.0705 -18.9720 64.9030 -28.2675 0.0000 0.0000 0.0000 5.7696 -1.3184 -7.2735 1.7472 1.4962 24.8485 4.0600 -0.1754 -7.1181 0.0000 -0.0000 0.0000 0.0000 0.0000 0.0000 5.4344 -1.0244 15.7399 3.3517 -1.1709 -3.8658 -0.0000 0.0000 -0.0000 -0.5348 5.0756 7.3922 -0.0000 0.0000 -0.0000 -34.2010 -2.4745 2.4054 -41.1762 -11.2727 -23.8426 -7.8661 5.2443 44.9129 15.3234 -1.8275 -0.9372 -0.0000 0.0000 -0.0000 34.4320 5.0993 3.4797 34.7743 1.1767 -19.1600 10.3250 -1.8959 21.7171 -10.7965 1.5492 -0.6323 0.0000 0.0000 0.0000 5.7535 5.9474 -3.0166 0.4079 -0.1014 64.9959 5.4576 -1.2604 13.5229 0.0000 0.0000 -0.0000
-12.2065 38.0309 47.6614 -19.8228 67.2023 -29.3281 0.0000 0.0000 0.0000 5.1784 -2.0508 -5.0140 1.1504 0.1957 25.2576 3.9416 -0.0973 -9.5918 0.0000 -0.0000 0.0000 0.0000 0.0000 0.0000 5.8791 -0.6197 15.5470 2.3419 -0.5732 -3.9213 -0.0000 0.0000 -0.0000 -0.5072 4.9366 7.4190 -0.0000 0.0000 -0.0000 -34.0401 -2.3728 2.3549 -40.5468 -10.3761 -24.0536 -7.7292 5.1868 47.0732 14.2847 -2.7272 -0.9776 -0.0000 0.0000 -0.0000 34.2902 5.0713 3.4561 34.6150 2.0117 -18.7813 10.4106 -1.4009 21.8886 -11.3231 1.6310 -0.6711 0.0000 0.0000 0.0000 4.6051 5.9821 -7.3239 6.1681 1.7476 66.5042 9.6095 -1.6029 6.9302 0.0000 0.0000 -0.0000
-11.1380 38.1079 48.2014 -20.2018 69.0367 -29.7598 0.0000 0.0000 0.0000 4.6416 -2.6956 -2.8342 0.7115 -0.9013 25.3632 3.3286 -0.0330 -11.6908 0.0000 -0.0000 0.0000 0.0000 0.0000 0.0000 6.1701 0.0405 15.2793 1.5143 0.2567 -4.0130 -0.0000 0.0000 -0.0000 -0.6842 4.8754 7.4430 -0.0000 0.0000 -0.0000 -33.9347 -2.2978 2.3187 -40.2363 -9.0144 -23.4889 -8.2649 5.1918 46.6941 14.1781 -3.3861 -1.0460 -0.0000 0.0000 -0.0000 33.9384 5.0146 3.4029 34.5170 2.7824 -18.4153 10.4949 -0.5351 21.3926 -11.3299 1.6311 -0.6716 0.0000 0.0000 0.0000 3.4744 6.5833 -11.1301 7.6603 2.4001 65.1795 11.1145 -1.3038 1.8229 0.0000 0.0000 -0.0000
-10.0669 38.2153 48.7127 -20.4000 70.9730 -29.9295 0.0000 0.0000 0.0000 4.0886 -3.0383 -0.4341 -0.0065 -2.3541 24.7026 3.1475 -0.0021 -12.9977 0.0000 -0.0000 0.0000 0.0000 0.0000 0.0000 5.8195 0.7469 14.9116 1.2836 0.9992 -3.9520 -0.0000 0.0000 -0.0000 -0.9416 4.7490 7.1345 -0.0000 0.0000 -0.0000 -33.9257 -2.2769 2.3099 -40.1153 -7.6948 -22.5909 -9.1222 5.2456 44.3864 14.7062 -3.5314 -1.1035 -0.0000 0.0000 -0.0000 33.6119 4.9614 3.3538 34.2370 3.5341 -18.0270 10.5994 0.6946 20.4525 -10.7673 1.6910 -0.6424 0.0000 0.0000 0.0000 2.1812 7.2326 -14.3085 7.6872 3.0322 61.2244 11.7685 -1.0674 -0.9651 0.0000 0.0000 -0.0000
-8.9835 38.3225 49.1749 -21.1080 73.0343 -30.3853 0.0000 0.0000 0.0000 3.6901 -3.2237 1.9675 -0.8421 -3.9995 23.5370 3.6423 0.0373 -14.1504 0.0000 -0.0000 0.0000 0.0000 0.0000 0.0000 5.2461 1.2931 14.3147 1.3042 1.5107 -3.7673 -0.0000 0.0000 -0.0000 -1.0860 4.7294 6.4856 -0.0000 0.0000 -0.0000 -33.9281 -2.2525 2.3003 -40.1014 -6.7112 -21.9724 -9.7291 5.2906 42.3818 15.1117 -3.5773 -1.1408 -0.0000 0.0000 -0.0000 33.5227 4.9442 3.3393 33.7590 4.3620 -17.6874 10.6539 1.9600 20.0031 -10.3992 1.8548 -0.6334 0.0000 0.0000 0.0000 0.8710 8.0230 -16.8553 8.9234 4.7885 55.0293 12.3345 -0.8632 -3.1917 0.0000 0.0000 -0.0000
-7.8890 38.3801 49.5680 -22.7960 75.0298 -31.4871 0.0000 0.0000 0.0000 3.6374 -3.3013 4.0532 -1.7339 -5.8433 22.3325 4.1584 0.0885 -15.3573 0.0000 -0.0000 0.0000 0.0000 0.0000 0.0000 4.8740 1.6227 13.4367 1.2134 1.8178 -3.5942 -0.0000 0.0000 -0.0000 -1.0386 4.9133 5.8053 -0.0000 0.0000 -0.0000 -33.9090 -2.2179 2.2854 -40.1124 -6.0709 -21.7693 -9.9405 5.3042 41.7343 15.1404 -3.7392 -1.1630 -0.0000 0.0000 -0.0000 33.5767 4.9491 3.3366 33.3896 5.2352 -17.4927 10.6006 3.1039 20.2120 -10.6125 1.9388 -0.6538 0.0000 0.0000 0.0000 -0.3630 9.5227 -18.7672 10.0152 7.4380 46.8877 12.7706 -0.7142 -4.7215 0.0000 0.0000 -0.0000
-6.8073 38.4765 49.8714 -25.4610 76.9656 -33.3537 0.0000 0.0000 0.0000 3.8501 -3.2273 6.1804 -2.7308 -8.1127 20.4164 4.2908 0.1029 -15.6315 0.0000 -0.0000 0.0000 0.0000 0.0000 0.0000 4.6893 1.8018 12.4402 0.9813 2.0000 -3.4877 -0.0000 0.0000 -0.0000 -0.8945 5.0601 5.3635 -0.0000 0.0000 -0.0000 -33.9479 -2.2348 2.2944 -40.0474 -5.8651 -21.9417 -9.8259 5.2943 42.1853 15.0775 -3.9345 -1.1821 -0.0000 0.0000 -0.0000 33.6098 4.9485 3.3389 33.3238 5.9604 -17.3549 10.5290 4.2767 20.0668 -11.0819 1.8212 -0.6732 0.0000 0.0000 0.0000 -1.8571 12.0875 -19.6889 8.9831 9.5937 36.4715 12.7714 -0.7441 -4.4591 0.0000 0.0000 -0.0000
